<?xml version="1.0" encoding="UTF-8"?>
<svg xmlns="http://www.w3.org/2000/svg" viewBox="0 0 24 24" width="24" height="24">
  <defs>
    <linearGradient id="g" x1="12" y1="2.8" x2="12" y2="21.2" gradientUnits="userSpaceOnUse">
      <stop offset="0" stop-color="#ffffff"/>
      <stop offset="0.5" stop-color="#eef5fb"/>
      <stop offset="1" stop-color="#c9d7e7"/>
    </linearGradient>
  </defs>
  <path d="M2.5 12.4 L12 3.2 L21.5 12.4 L19.6 12.4 L19.6 20 L19.6 20 Q 19.6 21 18.6 21 L 14.3 21 L 14.3 14.6 L 9.7 14.6 L 9.7 21 L 5.4 21 Q 4.4 21 4.4 20 L 4.4 12.4 Z"
        fill="none" stroke="#142033" stroke-width="0.95"
        stroke-linejoin="round" stroke-linecap="round"/>
  <path d="M2.5 12.4 L12 3.2 L21.5 12.4 L19.6 12.4 L19.6 20 L19.6 20 Q 19.6 21 18.6 21 L 14.3 21 L 14.3 14.6 L 9.7 14.6 L 9.7 21 L 5.4 21 Q 4.4 21 4.4 20 L 4.4 12.4 Z"
        fill="url(#g)" stroke="#1f3149" stroke-width="0.32"
        stroke-linejoin="round" stroke-linecap="round"/>
</svg>
