<?xml version="1.0" encoding="UTF-8"?>
<svg xmlns="http://www.w3.org/2000/svg" viewBox="0 0 24 24" width="24" height="24">
  <defs>
    <linearGradient id="g" x1="12" y1="2.8" x2="12" y2="21.2" gradientUnits="userSpaceOnUse">
      <stop offset="0" stop-color="#c3cedc"/>
      <stop offset="0.5" stop-color="#8795a8"/>
      <stop offset="1" stop-color="#4f5d70"/>
    </linearGradient>
  </defs>
  <path d="M10.7 2.3 L13.3 2.3 L13.7 4.6 Q14.9 4.9 15.9 5.6 L17.9 4.3 L19.7 6.1 L18.4 8.1 Q19.1 9.1 19.4 10.3 L21.7 10.7 L21.7 13.3 L19.4 13.7 Q19.1 14.9 18.4 15.9 L19.7 17.9 L17.9 19.7 L15.9 18.4 Q14.9 19.1 13.7 19.4 L13.3 21.7 L10.7 21.7 L10.3 19.4 Q9.1 19.1 8.1 18.4 L6.1 19.7 L4.3 17.9 L5.6 15.9 Q4.9 14.9 4.6 13.7 L2.3 13.3 L2.3 10.7 L4.6 10.3 Q4.9 9.1 5.6 8.1 L4.3 6.1 L6.1 4.3 L8.1 5.6 Q9.1 4.9 10.3 4.6 Z"
        fill="none" stroke="#142033" stroke-width="0.95"
        stroke-linejoin="round" stroke-linecap="round"/>
  <path d="M10.7 2.3 L13.3 2.3 L13.7 4.6 Q14.9 4.9 15.9 5.6 L17.9 4.3 L19.7 6.1 L18.4 8.1 Q19.1 9.1 19.4 10.3 L21.7 10.7 L21.7 13.3 L19.4 13.7 Q19.1 14.9 18.4 15.9 L19.7 17.9 L17.9 19.7 L15.9 18.4 Q14.9 19.1 13.7 19.4 L13.3 21.7 L10.7 21.7 L10.3 19.4 Q9.1 19.1 8.1 18.4 L6.1 19.7 L4.3 17.9 L5.6 15.9 Q4.9 14.9 4.6 13.7 L2.3 13.3 L2.3 10.7 L4.6 10.3 Q4.9 9.1 5.6 8.1 L4.3 6.1 L6.1 4.3 L8.1 5.6 Q9.1 4.9 10.3 4.6 Z"
        fill="url(#g)" stroke="#1f3149" stroke-width="0.32"
        stroke-linejoin="round" stroke-linecap="round"/>
  <circle cx="12" cy="12" r="3" fill="#ffffff" opacity="0.92"/>
</svg>
